<?xml version="1.0" standalone="no"?>
<!DOCTYPE svg PUBLIC "-//W3C//DTD SVG 20010904//EN"
 "http://www.w3.org/TR/2001/REC-SVG-20010904/DTD/svg10.dtd">
<svg version="1.0" xmlns="http://www.w3.org/2000/svg"
 width="526.000000pt" height="526.000000pt" viewBox="0 0 526.000000 526.000000"
 preserveAspectRatio="xMidYMid meet">
<metadata>
Created by potrace 1.14, written by Peter Selinger 2001-2017
</metadata>
<g transform="translate(0.000000,526.000000) scale(0.100000,-0.100000)"
fill="#000000" stroke="none">
<path d="M2385 5220 c-245 -22 -505 -77 -710 -152 -352 -127 -734 -375 -969
-629 -375 -405 -590 -861 -673 -1424 -27 -186 -24 -601 6 -794 112 -729 490
-1337 1076 -1733 530 -358 1203 -509 1885 -422 765 96 1415 495 1826 1120 216
327 351 704 399 1110 18 151 21 494 5 639 -52 481 -217 909 -496 1285 -91 123
-344 380 -459 467 -383 289 -788 454 -1270 518 -139 19 -489 27 -620 15z m485
-341 c527 -48 1013 -273 1374 -635 350 -352 562 -800 622 -1320 22 -185 15
-516 -15 -689 -42 -246 -97 -420 -206 -640 -119 -243 -239 -408 -431 -596
-330 -320 -747 -523 -1229 -595 -167 -25 -542 -25 -709 -1 -755 113 -1357 547
-1676 1210 -110 228 -178 459 -211 722 -21 163 -16 504 10 670 130 853 686
1512 1494 1774 164 53 318 83 527 104 81 8 344 6 450 -4z"/>
<path d="M1669 3617 c-162 -61 -269 -229 -269 -422 0 -171 94 -336 228 -402
49 -24 69 -28 142 -28 106 0 158 22 234 98 176 176 183 467 16 650 -72 79
-136 110 -235 114 -50 2 -93 -2 -116 -10z"/>
<path d="M3378 3615 c-176 -65 -291 -283 -258 -491 22 -138 114 -274 225 -332
43 -23 62 -27 140 -27 78 0 97 4 141 27 112 59 203 194 224 333 33 210 -83
428 -261 490 -51 18 -161 18 -211 0z"/>
<path d="M2365 2285 c-128 -20 -232 -52 -343 -106 -86 -42 -117 -64 -181 -127
-87 -87 -125 -153 -142 -251 -22 -125 20 -311 103 -453 59 -101 209 -251 317
-316 375 -229 855 -170 1167 142 80 81 118 134 169 234 70 139 95 338 58 453
-67 209 -322 373 -658 424 -120 18 -377 18 -490 0z"/>
</g>
</svg>
